<?xml version="1.0" standalone="no"?>
<!DOCTYPE svg PUBLIC "-//W3C//DTD SVG 1.1//EN" "http://www.w3.org/Graphics/SVG/1.1/DTD/svg11.dtd" >
<svg xmlns="http://www.w3.org/2000/svg">
<metadata>Generated by IcoMoon</metadata>
<defs>
<font id="icomoon" horiz-adv-x="1024">
<font-face units-per-em="1024" ascent="960" descent="-64" />
<missing-glyph horiz-adv-x="1024" />
<glyph unicode="&#x20;" d="" horiz-adv-x="512" />
<glyph unicode="&#xe600;" d="M933.248 624.896c-40 10.496-134.048 10.368-271.616 14.016 6.496 30.016 8 57.088 8 105.152 0 114.816-83.648 215.936-157.632 215.936-52.256 0-95.328-42.72-96-95.264-0.704-64.448-20.64-175.744-128-232.192-7.872-4.16-30.4-15.264-33.696-16.704l1.696-1.44c-16.8 14.496-40.096 25.6-64 25.6h-96c-52.928 0-96-43.072-96-96v-512c0-52.928 43.072-96 96-96h96c38.080 0 69.952 23.008 85.376 55.264 0.384-0.128 1.056-0.32 1.504-0.384 2.112-0.576 4.608-1.184 7.648-1.984 0.576-0.16 0.864-0.224 1.472-0.384 18.432-4.576 53.92-13.056 129.76-30.496 16.256-3.712 102.144-22.016 191.104-22.016h174.944c53.312 0 91.744 20.512 114.624 61.696 0.32 0.64 7.68 15.008 13.696 34.432 4.512 14.624 6.176 35.328 0.736 56.32 34.368 23.616 45.44 59.328 52.64 82.56 12.064 38.112 8.448 66.752 0.064 87.264 19.328 18.24 35.808 46.048 42.752 88.512 4.32 26.304-0.32 53.376-12.448 75.904 18.112 20.352 26.368 45.952 27.328 69.632l0.384 6.688c0.224 4.192 0.416 6.784 0.416 16 0 40.416-28 91.968-90.752 109.888zM224 32c0-17.696-14.304-32-32-32h-96c-17.696 0-32 14.304-32 32v512c0 17.696 14.304 32 32 32h96c17.696 0 32-14.304 32-32v-512zM959.264 494.88c-0.64-15.808-7.264-46.88-63.264-46.88-48 0-64 0-64 0-8.864 0-16-7.168-16-16s7.136-16 16-16c0 0 14.016 0 62.016 0s54.304-39.808 51.2-59.008c-3.968-23.872-15.168-68.992-69.216-68.992-53.984 0-76 0-76 0-8.864 0-16-7.136-16-16 0-8.8 7.136-16 16-16 0 0 38.016 0 63.008 0 54.016 0 49.248-41.184 41.504-65.76-10.208-32.288-16.448-62.24-84.512-62.24-23.008 0-52.192 0-52.192 0-8.864 0-16-7.136-16-16 0-8.8 7.136-16 16-16 0 0 22.176 0 50.176 0 35.008 0 36.64-33.12 32.992-44.992-4-12.992-8.736-22.624-8.928-23.072-9.664-17.44-25.248-27.936-58.24-27.936h-174.944c-87.872 0-175.040 19.936-177.28 20.448-132.928 30.624-139.936 32.992-148.288 35.36 0 0-27.072 4.576-27.072 28.192l-0.224 441.984c0 15.008 9.568 28.576 25.408 33.344 1.984 0.768 4.672 1.6 6.592 2.4 146.176 60.544 190.688 193.28 192 302.272 0.192 15.328 12 32 32 32 33.824 0 93.632-67.904 93.632-151.936 0-75.872-3.072-88.992-29.632-168.064 320 0 317.76-4.608 345.984-12 35.008-10.016 38.016-39.008 38.016-48.992 0-10.976-0.32-9.376-0.736-20.128zM144 128c-26.496 0-48-21.504-48-48s21.504-48 48-48 48 21.504 48 48-21.504 48-48 48zM144 64c-8.8 0-16 7.2-16 16s7.2 16 16 16 16-7.2 16-16-7.2-16-16-16z" />
<glyph unicode="&#xe601;" d="M219.429 182.857q0-45.714-32-77.714t-77.714-32-77.714 32-32 77.714 32 77.714 77.714 32 77.714-32 32-77.714zM512 112.571q1.143-16-9.714-27.429-10.286-12-26.857-12h-77.143q-14.286 0-24.571 9.429t-11.429 23.714q-12.571 130.857-105.429 223.714t-223.714 105.429q-14.286 1.143-23.714 11.429t-9.429 24.571v77.143q0 16.571 12 26.857 9.714 9.714 24.571 9.714h2.857q91.429-7.429 174.857-46t148-103.714q65.143-64.571 103.714-148t46-174.857zM804.571 111.428q1.143-15.429-10.286-26.857-10.286-11.429-26.286-11.429h-81.714q-14.857 0-25.429 10t-11.143 24.286q-6.857 122.857-57.714 233.429t-132.286 192-192 132.286-233.429 58.286q-14.286 0.571-24.286 11.143t-10 24.857v81.714q0 16 11.429 26.286 10.286 10.286 25.143 10.286h1.714q149.714-7.429 286.571-68.571t243.143-168q106.857-106.286 168-243.143t68.571-286.571z" horiz-adv-x="805" />
<glyph unicode="&#xe602;" d="M426.667 85.334v256h170.667v-256h213.333v341.333h128l-426.667 384-426.667-384h128v-341.333z" />
<glyph unicode="&#xe603;" d="M1014.662 137.34c-0.004 0.004-0.008 0.008-0.012 0.010l-310.644 310.65 310.644 310.65c0.004 0.004 0.008 0.006 0.012 0.010 3.344 3.346 5.762 7.254 7.312 11.416 4.246 11.376 1.824 24.682-7.324 33.83l-146.746 146.746c-9.148 9.146-22.45 11.566-33.828 7.32-4.16-1.55-8.070-3.968-11.418-7.31 0-0.004-0.004-0.006-0.008-0.010l-310.648-310.652-310.648 310.65c-0.004 0.004-0.006 0.006-0.010 0.010-3.346 3.342-7.254 5.76-11.414 7.31-11.38 4.248-24.682 1.826-33.83-7.32l-146.748-146.748c-9.148-9.148-11.568-22.452-7.322-33.828 1.552-4.16 3.97-8.072 7.312-11.416 0.004-0.002 0.006-0.006 0.010-0.010l310.65-310.648-310.65-310.652c-0.002-0.004-0.006-0.006-0.008-0.010-3.342-3.346-5.76-7.254-7.314-11.414-4.248-11.376-1.826-24.682 7.322-33.83l146.748-146.746c9.15-9.148 22.452-11.568 33.83-7.322 4.16 1.552 8.070 3.97 11.416 7.312 0.002 0.004 0.006 0.006 0.010 0.010l310.648 310.65 310.648-310.65c0.004-0.002 0.008-0.006 0.012-0.008 3.348-3.344 7.254-5.762 11.414-7.314 11.378-4.246 24.684-1.826 33.828 7.322l146.746 146.748c9.148 9.148 11.57 22.454 7.324 33.83-1.552 4.16-3.97 8.068-7.314 11.414z" />
<glyph unicode="&#xe604;" d="M452.221 861.422c-148.746 0-278.975-78.705-351.379-196.516l51.278-9.637c0 0 335.411-52.998 507.314-67.88-247.406-1.188-410.082 34.609-476.631 49.443-51.843 11.557-87.845 29.331-87.845 29.331-1.253 0.275-2.494 0.562-3.783 0.838l-87.424-189.811c12.399-2.099 24.64-3.963 36.987-5.866-0.342-6.861-0.419-13.586-0.419-20.532 0-226.784 184.415-410.63 411.903-410.63s411.903 183.845 411.903 410.63c0 34.973-4.356 68.987-12.609 101.4 1.683 0.847 3.367 1.655 5.044 2.514l-75.656 191.487c-5.226-2.316-10.392-4.453-15.551-6.704 0 0-86.089-69.177-120.629-79.193-31.377-9.098-192.502-37.292-192.502-37.292 139.895 32.046 207.063 57.21 278.665 101.819l20.175 8.38c-75.067 78.946-181.111 128.217-298.84 128.217zM830.499 511.549c0 0-26.972-373.107-446.789-349.454-228.841 12.893-300.521 146.234-300.521 146.234v148.329c80.124-12.821 475.846-44.81 747.31 54.89zM817.042 638.603c-2.141 63.459 28.509 138.199 80.375 188.537l69.286-61.272c-57.155-24.307-102.381-78.346-149.661-127.265zM1021.262 581.517l-7.898 112.674c-59.115 7.665-149.425-22.682-215.779-63.119 66.303 11.852 148.477-10.606 223.677-49.555zM485.925 334.772c0 0 68.533-69.806 137.885-48.198 77.57 24.169 122.119 133.856 122.119 133.856zM386.261 331.6c0 0-51.752-76.728-129.786-54.157-81.763 23.649-122.722 133.402-122.722 133.402z" />
<glyph unicode="&#xe605;" d="M770.637 35.812c-13.375-14.894-37.085-22.342-71.128-22.342-18.239 0-38.833 2.28-61.782 6.839s-42.936 9.879-59.958 15.958c-17.023 6.079-27.814 10.943-32.373 14.59v314.607c-0.001 4.255-0.836 7.219-2.508 8.891s-6.764 5.851-15.274 12.539c-9.423 3.647-25.002 9.651-46.735 18.010s-42.024 16.566-60.87 24.621-42.784 18.846-71.812 32.373c-29.029 13.526-55.702 27.129-80.020 40.808-9.423 6.383-27.585 20.061-54.486 41.036-26.901 20.973-43.392 35.868-49.471 44.683v-552.613c14.59-7.599 24.317-17.934 29.181-31.005 0-0.304 1.52-4.256 4.56-11.855s4.559-13.222 4.559-16.87c0-9.423-6.839-14.134-20.518-14.135-2.128 0-8.359 0.608-18.694 1.824-26.445 3.040-47.267 6.839-62.465 11.399-17.326 5.471-32.525 13.223-45.595 23.254-13.679 9.119-20.518 21.582-20.518 37.388v861.749c0.912 3.343 2.432 5.015 4.56 5.016 1.52-0.001 2.736-0.305 3.648-0.912 0.912-0.609 1.52-1.065 1.824-1.368 19.454-22.798 42.859-47.876 70.217-75.232 21.278-22.494 44.987-45.292 71.128-68.393 26.141-23.71 54.106-46.736 83.895-69.077s60.033-42.328 90.734-59.958c29.788-17.935 59.273-32.221 88.455-42.86 28.572-11.247 55.626-16.871 81.159-16.87v196.971c-1.824 1.519-6.232 5.015-13.223 10.487-6.992 5.471-12.159 11.702-15.502 18.694-1.824 9.118-2.736 14.742-2.736 16.87 0 9.422 6.839 18.085 20.518 25.989 13.070 8.206 29.788 15.35 50.155 21.43 79.335 17.021 123.258 26.14 131.77 27.357 20.061 2.431 37.235 4.559 51.523 6.383 7.902-0.001 13.298-1.217 16.186-3.648 2.887-2.433 4.939-8.664 6.155-18.694-0.001-13.071-0.912-26.75-2.736-41.036-1.825-14.287-5.624-27.662-11.399-40.124-5.472-12.463-14.135-20.367-25.989-23.709v-670.249c11.246-5.471 19.909-13.527 25.989-24.165 6.383-10.335 9.574-21.886 9.575-34.652zM849.060 183.54v55.626c0.608 9.727 2.964 18.694 7.067 26.901s12.691 16.11 25.761 23.709v479.205c-12.767 5.471-21.278 11.778-25.533 18.922-4.256 7.142-6.383 16.034-6.383 26.673 0 9.422 6.839 18.085 20.518 25.989 13.071 8.206 29.637 15.35 49.699 21.43 7.903 2.735 21.658 6.078 41.264 10.031 19.606 3.951 36.856 7.218 51.75 9.803 14.894 2.583 27.661 5.091 38.3 7.523 16.414 2.431 26.749 3.647 31.005 3.648 13.982-0.001 23.709-2.357 29.181-7.067 5.471-4.712 8.207-10.412 8.207-17.098 0-7.296-2.432-15.047-7.295-23.254-1.824-3.040-7.22-5.7-16.186-7.979-8.967-2.28-15.427-4.484-19.378-6.611-3.952-2.129-5.928-6.080-5.927-11.855v-760.071c0-8.207-2.66-14.287-7.979-18.238s-10.715-5.623-16.186-5.016c-22.19 0.608-43.62 2.128-64.289 4.56-27.357 2.432-50.839 8.663-70.445 18.694s-35.032 25.077-46.279 45.139c-11.247 19.454-16.87 45.899-16.87 79.336zM1930.578 35.812c-13.375-14.894-37.085-22.342-71.128-22.342-18.239 0-38.833 2.28-61.782 6.839-22.95 4.56-42.936 9.879-59.958 15.958s-27.814 10.943-32.373 14.59v314.607c-0.001 4.255-0.836 7.219-2.508 8.891s-6.764 5.851-15.274 12.539c-9.423 3.647-25.002 9.651-46.735 18.010s-42.024 16.566-60.87 24.621-42.784 18.846-71.812 32.373c-29.029 13.526-55.702 27.129-80.020 40.808-9.423 6.383-27.585 20.061-54.486 41.036-26.901 20.973-43.392 35.868-49.471 44.683v-552.613c14.59-7.599 24.317-17.934 29.181-31.005 0-0.304 1.52-4.256 4.56-11.855s4.559-13.222 4.559-16.87c0-9.423-6.839-14.134-20.518-14.135-2.128 0-8.359 0.608-18.694 1.824-26.445 3.040-47.267 6.839-62.465 11.399-17.326 5.471-32.525 13.223-45.595 23.254-13.679 9.119-20.518 21.582-20.518 37.388v861.749c0.912 3.343 2.432 5.015 4.559 5.016 1.52-0.001 2.736-0.305 3.648-0.912 0.912-0.609 1.52-1.065 1.824-1.368 19.454-22.798 42.859-47.876 70.217-75.232 21.278-22.494 44.987-45.292 71.128-68.393 26.141-23.71 54.106-46.736 83.895-69.077s60.033-42.328 90.734-59.958c29.788-17.935 59.273-32.221 88.455-42.86 28.572-11.247 55.626-16.871 81.159-16.87v196.971c-1.824 1.519-6.232 5.015-13.223 10.487-6.992 5.471-12.159 11.702-15.502 18.694-1.824 9.118-2.736 14.742-2.736 16.87 0 9.422 6.839 18.085 20.518 25.989 13.070 8.206 29.788 15.35 50.155 21.43 79.335 17.021 123.258 26.14 131.77 27.357 20.061 2.431 37.235 4.559 51.523 6.383 7.902-0.001 13.298-1.217 16.186-3.648 2.887-2.433 4.939-8.664 6.155-18.694-0.001-13.071-0.913-26.75-2.736-41.036-1.825-14.287-5.624-27.662-11.399-40.124-5.472-12.463-14.135-20.367-25.989-23.709v-670.249c11.246-5.471 19.909-13.527 25.989-24.165 6.383-10.335 9.574-21.886 9.575-34.652zM2081.042 90.982c-7.903 4.559-20.062 12.539-36.476 23.938s-26.141 19.226-29.181 23.481c-7.295 9.423-10.943 22.493-10.943 39.212 0 5.775 0.912 10.487 2.736 14.134l174.63 174.63c3.647 3.039 8.967 4.559 15.958 4.56 5.775-1.824 10.335-5.472 13.679-10.943 3.951-8.207 8.359-17.934 13.223-29.181 4.255-11.855 9.879-24.318 16.87-37.388 6.687-13.679 15.958-26.141 27.813-37.388 11.246-11.855 25.685-21.43 43.315-28.725 15.502-8.207 36.324-12.311 62.465-12.311 32.828 0 55.778 1.976 68.849 5.927 18.846 7.599 42.023 21.658 69.533 42.176s43.239 45.367 47.191 74.548v431.33c-6.384 2.735-13.223 8.206-20.518 16.414-7.296 8.206-10.943 17.933-10.943 29.181-0.001 9.422 6.839 18.085 20.518 25.989 13.070 8.206 29.484 15.35 49.243 21.43 6.383 3.039 18.085 6.382 35.108 10.031 17.022 3.647 36.171 7.294 57.45 10.943 21.277 3.647 34.348 5.775 39.212 6.383 15.502 2.127 26.52 3.495 33.056 4.103 6.535 0.607 12.69 1.367 18.466 2.28 13.070-0.001 19.605-6.232 19.606-18.694-1.825-8.816-5.32-16.871-10.487-24.165-7.904-11.856-21.583-20.215-41.036-25.077v-490.148c-0.001-17.63-6.764-40.048-20.29-67.253-13.527-27.205-25.762-46.887-36.704-59.046-1.825-1.824-8.436-8.815-19.834-20.974-11.399-12.159-24.090-25.229-38.072-39.212-13.983-13.983-26.826-25.761-38.528-35.336-11.703-9.575-21.81-16.338-30.321-20.29-7.904-7.903-26.598-17.478-56.082-28.725-29.485-11.247-51.675-18.086-66.569-20.518-46.811-6.991-92.559-10.487-137.241-10.487-28.877 0-54.943 1.292-78.196 3.876s-38.832 4.787-46.735 6.611c-12.767 2.736-25.154 6.535-37.16 11.399s-22.19 9.575-30.549 14.135c-8.359 4.559-19.378 10.943-33.057 19.15zM3267.428 580.218c-10.639 8.207-20.214 12.31-28.725 12.311-9.423-0.001-19.15-4.104-29.181-12.311-10.639-8.208-20.822-18.543-30.549-31.005-8.815-8.208-26.446-35.337-52.89-81.387s-39.668-73.333-39.668-81.843h295.913c-0.001 16.414-5.624 35.184-16.87 56.31-11.247 21.125-23.71 42.783-37.388 64.973-5.472 10.030-15.123 23.481-28.953 40.352-13.831 16.87-24.394 27.737-31.689 32.601zM3061.338 732.506c-10.031 3.039-15.047 11.702-15.046 25.989 0 7.294 2.432 14.742 7.295 22.342 4.863 7.598 9.879 13.982 15.046 19.15s11.399 10.942 18.694 17.326c3.951 3.951 16.338 12.69 37.16 26.217 20.822 13.526 36.4 22.873 46.735 28.041 6.991 4.863 18.998 9.954 36.020 15.274s30.548 7.978 40.58 7.979c18.542-1.521 43.163-14.591 73.864-39.212l38.3 35.564 53.346-44.683c-0.001-1.825-6.384-8.056-19.15-18.694-12.767-10.64-19.151-17.175-19.15-19.606 20.365-21.279 39.059-46.128 56.082-74.548 17.022-28.422 31.916-56.919 44.683-85.491 6.687-11.855 20.669-41.264 41.948-88.227 21.277-46.963 42.707-94.306 64.289-142.029 21.581-47.723 48.026-106.389 79.336-175.997 31.308-69.609 48.178-107.453 50.611-113.532 1.823-4.864 8.358-14.59 19.606-29.181 11.246-14.591 16.869-26.141 16.87-34.652-0.001-10.943-7.144-20.518-21.43-28.725h-325.094c-7.296 5.775-10.943 11.399-10.943 16.87-0.001 3.344 2.735 9.575 8.207 18.694 2.127 4.559 6.611 13.603 13.451 27.129 6.839 13.527 11.322 22.874 13.451 28.041 3.951 10.335 5.927 25.533 5.927 45.595-0.001 36.172-1.672 61.705-5.015 76.6-1.216 3.647-2.888 9.803-5.016 18.466s-4.028 15.198-5.699 19.606c-1.672 4.407-4.028 8.587-7.067 12.539h-362.938c-4.256-20.67-8.587-49.319-12.995-85.947s-6.611-78.044-6.611-124.247c0-40.124 2.736-81.919 8.207-125.387-19.15 0-39.060 5.319-59.73 15.958-19.758 10.031-37.236 23.406-52.434 40.124-15.502 16.11-27.813 34.5-36.932 55.17-10.031 20.062-15.046 39.972-15.046 59.73 0.303 3.952 0.684 7.675 1.14 11.171s0.836 6.307 1.14 8.435c0.304 2.128 0.76 4.559 1.368 7.295s1.216 5.623 1.824 8.663c4.863 12.159 10.791 27.053 17.782 44.683s14.286 34.728 21.886 51.295c7.599 16.566 13.375 27.129 17.326 31.689l-50.611 2.28c0 1.824 0.988 9.955 2.964 24.393s2.964 27.433 2.964 38.984c0 10.031-0.608 17.174-1.824 21.43 4.559 0 11.399-0.076 20.518-0.228s19.302-0.38 30.549-0.684c19.454 0 30.701 0.911 33.74 2.736 5.167 7.295 14.818 20.973 28.953 41.036s29.333 41.719 45.595 64.973c16.262 23.253 33.664 48.406 52.206 75.46s28.573 41.947 30.093 44.683c9.423 19.149 14.134 36.476 14.135 51.979 0 26.445-5.016 42.707-15.046 48.787-4.56 2.431-14.515 5.851-29.865 10.259-15.351 4.407-27.433 7.219-36.248 8.435zM4422.354 902.576c23.405-0.001 45.595-1.673 66.569-5.016 20.973-3.344 36.475-7.6 46.507-12.767 25.836-12.16 43.467-23.71 52.89-34.652 13.678-15.503 20.517-37.389 20.518-65.657-0.001-6.080-4.864-21.886-14.59-47.419-0.609-1.825-8.968-21.582-25.077-59.274-16.111-37.693-34.653-80.704-55.626-129.034-20.975-48.331-38.377-88.455-52.207-120.371-13.831-31.917-22.418-51.371-25.761-58.362-5.472-11.855-13.755-29.029-24.849-51.523-11.095-22.494-29.789-60.338-56.082-113.532s-45.444-92.026-57.45-116.496c-12.007-24.469-22.57-46.127-31.689-64.973-7.296-12.767-12.387-21.202-15.274-25.305s-6.156-6.155-9.803-6.155c-3.952 0-7.068 0.988-9.347 2.964s-4.788 5.243-7.523 9.803c-2.736 4.559-6.84 10.791-12.311 18.694-3.952 7.903-14.211 26.293-30.777 55.17s-37.312 65.277-62.237 109.2c-24.926 43.923-45.443 80.171-61.553 108.744s-30.549 54.258-43.315 77.056c-9.423 18.238-19.91 39.135-31.461 62.693s-29.713 61.857-54.486 114.9c-24.773 53.042-45.063 96.737-60.87 131.086-15.806 34.348-26.901 58.513-33.284 72.496-11.247 27.964-16.87 46.962-16.87 56.994 0 10.030 6.535 18.693 19.606 25.989 7.295 6.078 20.442 12.462 39.44 19.15 18.998 6.686 39.592 12.538 61.782 17.554 22.189 5.015 45.747 9.194 70.672 12.539 24.925 3.343 44.227 5.015 57.906 5.016 7.599-0.001 13.146-0.913 16.642-2.736 3.495-1.825 5.091-5.928 4.787-12.311-0.912-8.816-2.888-16.567-5.927-23.254-4.256-11.856-13.831-21.431-28.725-28.725-18.846-8.816-28.269-27.206-28.269-55.17 0-18.543 3.951-40.276 11.855-65.201 7.903-24.926 17.402-49.775 28.497-74.548s16.946-37.921 17.554-39.44c3.343-10.032 16.338-41.796 38.984-95.294s45.595-102.362 68.849-146.588c23.253-44.228 40.655-68.013 52.206-71.356 11.854 0 25.913 13.906 42.176 41.72 16.262 27.813 31.688 58.969 46.279 93.47 14.59 34.5 29.788 72.572 45.595 114.216 15.806 41.643 24.013 62.921 24.621 63.833 4.863 8.207 11.398 22.189 19.606 41.947s15.654 41.947 22.342 66.569c6.687 24.621 10.030 46.506 10.031 65.657-0.001 28.572-7.448 48.634-22.342 60.186-16.719 7.902-26.598 18.693-29.637 32.373-1.824 5.775-3.344 14.286-4.56 25.533-0.001 7.902 2.203 13.146 6.611 15.73 4.407 2.583 10.866 3.875 19.378 3.876zM4682.702 183.54v55.626c0.608 9.727 2.964 18.694 7.067 26.901s12.691 16.11 25.761 23.709v479.205c-12.767 5.471-21.278 11.778-25.533 18.922-4.256 7.142-6.383 16.034-6.383 26.673 0 9.422 6.839 18.085 20.518 25.989 13.071 8.206 29.637 15.35 49.699 21.43 7.903 2.735 21.658 6.078 41.264 10.031 19.606 3.951 36.856 7.218 51.75 9.803 14.894 2.583 27.661 5.091 38.3 7.523 16.414 2.431 26.749 3.647 31.005 3.648 13.982-0.001 23.709-2.357 29.181-7.067 5.471-4.712 8.207-10.412 8.207-17.098 0-7.296-2.432-15.047-7.295-23.254-1.824-3.040-7.219-5.7-16.186-7.979s-15.427-4.484-19.378-6.611c-3.952-2.129-5.928-6.080-5.927-11.855v-760.071c0-8.207-2.66-14.287-7.979-18.238s-10.715-5.623-16.186-5.016c-22.19 0.608-43.62 2.128-64.289 4.56-27.357 2.432-50.839 8.663-70.444 18.694s-35.032 25.077-46.279 45.139c-11.247 19.454-16.87 45.899-16.87 79.336zM5572.72 477.629c16.718 22.493 25.077 62.313 25.077 119.459-0.001 51.674-10.335 88.454-31.005 110.34-20.974 20.973-56.387 31.46-106.237 31.461-19.454-0.001-37.844-1.521-55.17-4.56-17.327-3.040-30.701-6.536-40.124-10.487-9.423-3.952-16.567-7.6-21.43-10.943-10.639-8.816-15.959-22.19-15.958-40.124l-1.824-211.106h208.37c17.63 0 30.396 5.319 38.3 15.958zM5186.985 465.318l-5.471 147.728c-3.344 9.118-12.235 21.581-26.673 37.388-14.439 15.806-31.689 33.588-51.75 53.346-20.062 19.757-31.613 31.156-34.652 34.196-27.357 9.118-41.036 20.365-41.036 33.74 0 2.127 0.228 3.875 0.684 5.243 0.456 1.367 0.835 2.355 1.14 2.964 27.661 31.308 63.757 56.157 108.288 74.548 44.531 18.389 79.715 29.104 105.553 32.145 39.819 5.775 75.232 10.334 106.237 13.679 31.004 3.343 62.769 5.015 95.294 5.016 144.384-0.001 258.372-40.277 341.964-120.827 13.678-13.679 25.836-30.398 36.476-50.155 9.118-20.063 13.678-45.596 13.678-76.6-0.001-24.318-3.648-44.836-10.943-61.553-8.816-17.631-19.151-33.285-31.005-46.963-11.248-14.287-23.71-27.358-37.388-39.212-13.679-12.463-26.75-25.534-39.212-39.212-11.248-14.287-20.518-29.789-27.813-46.507-8.208-17.327-12.311-37.844-12.311-61.553-0.001-34.957 5.927-69.153 17.782-102.589 10.638-34.349 25.837-66.721 45.595-97.118 20.061-30.701 42.251-59.122 66.569-85.263 26.748-26.749 53.193-50.763 79.336-72.040 1.215-1.824 2.583-4.711 4.103-8.663 1.519-3.952 2.279-8.815 2.28-14.59-0.001-6.991-2.129-13.222-6.383-18.694-48.332 0-95.599 12.463-141.801 37.388-46.204 23.709-88.303 54.866-126.299 93.47-36.173 38.604-67.329 82.223-93.47 130.858-24.926 47.723-41.34 95.902-49.243 144.537h-156.847v-334.213h-123.563v334.213c-15.199 0.608-28.041 5.167-38.528 13.679s-16.946 18.846-19.378 31.005c0 10.638 3.799 20.897 11.399 30.777s20.062 16.49 37.388 19.834zM6360.604 580.218c-10.639 8.207-20.214 12.31-28.725 12.311-9.423-0.001-19.15-4.104-29.181-12.311-10.639-8.208-20.822-18.543-30.549-31.005-8.815-8.208-26.446-35.337-52.89-81.387s-39.668-73.333-39.668-81.843h295.913c-0.001 16.414-5.624 35.184-16.87 56.31-11.247 21.125-23.71 42.783-37.388 64.973-5.472 10.030-15.123 23.481-28.953 40.352s-24.394 27.737-31.689 32.601zM6154.514 732.506c-10.031 3.039-15.047 11.702-15.046 25.989 0 7.294 2.432 14.742 7.295 22.342 4.863 7.598 9.879 13.982 15.046 19.15s11.399 10.942 18.694 17.326c3.951 3.951 16.338 12.69 37.16 26.217 20.822 13.526 36.4 22.873 46.735 28.041 6.991 4.863 18.998 9.954 36.020 15.274s30.548 7.978 40.58 7.979c18.542-1.521 43.163-14.591 73.864-39.212l38.3 35.564 53.346-44.683c-0.001-1.825-6.384-8.056-19.15-18.694-12.767-10.64-19.151-17.175-19.15-19.606 20.365-21.279 39.059-46.128 56.082-74.548 17.022-28.422 31.916-56.919 44.683-85.491 6.687-11.855 20.669-41.264 41.948-88.227 21.277-46.963 42.707-94.306 64.289-142.029s48.026-106.389 79.336-175.997c31.308-69.609 48.178-107.453 50.611-113.532 1.823-4.864 8.358-14.59 19.606-29.181 11.246-14.591 16.869-26.141 16.87-34.652-0.001-10.943-7.144-20.518-21.43-28.725h-325.094c-7.296 5.775-10.943 11.399-10.943 16.87-0.001 3.344 2.735 9.575 8.207 18.694 2.127 4.559 6.611 13.603 13.451 27.129 6.839 13.527 11.322 22.874 13.451 28.041 3.951 10.335 5.927 25.533 5.927 45.595-0.001 36.172-1.672 61.705-5.015 76.6-1.216 3.647-2.888 9.803-5.016 18.466s-4.028 15.198-5.699 19.606c-1.672 4.407-4.028 8.587-7.067 12.539h-362.938c-4.256-20.67-8.587-49.319-12.995-85.947s-6.611-78.044-6.611-124.247c0-40.124 2.736-81.919 8.207-125.387-19.15 0-39.060 5.319-59.73 15.958-19.758 10.031-37.236 23.406-52.434 40.124-15.502 16.11-27.813 34.5-36.932 55.17-10.031 20.062-15.046 39.972-15.046 59.73 0.303 3.952 0.684 7.675 1.14 11.171s0.836 6.307 1.14 8.435c0.304 2.128 0.759 4.559 1.368 7.295s1.216 5.623 1.824 8.663c4.863 12.159 10.791 27.053 17.782 44.683s14.286 34.728 21.886 51.295c7.599 16.566 13.374 27.129 17.326 31.689l-50.611 2.28c0 1.824 0.988 9.955 2.964 24.393s2.964 27.433 2.964 38.984c0 10.031-0.608 17.174-1.824 21.43 4.559 0 11.399-0.076 20.518-0.228s19.302-0.38 30.549-0.684c19.454 0 30.701 0.911 33.74 2.736 5.167 7.295 14.818 20.973 28.953 41.036s29.333 41.719 45.595 64.973c16.262 23.253 33.664 48.406 52.207 75.46 18.542 27.053 28.573 41.947 30.093 44.683 9.423 19.149 14.134 36.476 14.135 51.979 0 26.445-5.016 42.707-15.046 48.787-4.56 2.431-14.515 5.851-29.865 10.259-15.351 4.407-27.433 7.219-36.248 8.435zM7046.811 857.437c10.031 3.647 22.569 7.066 37.616 10.259 15.046 3.191 31.916 6.61 50.611 10.259 18.694 3.647 33.208 6.23 43.543 7.751 16.11 2.127 27.205 3.495 33.284 4.103s12.006 1.367 17.782 2.28c8.511-0.001 14.362-1.293 17.554-3.876 3.191-2.585 4.787-8.74 4.787-18.466 0-13.679-0.912-27.358-2.736-41.036-2.432-14.287-6.46-27.662-12.083-40.124-5.624-12.463-14.363-20.367-26.217-23.709v-554.437h254.877c-1.824 6.383-2.736 12.31-2.735 17.782-0.001 2.736 0.303 6.079 0.91 10.031s1.519 8.131 2.735 12.539c1.216 4.407 1.823 7.067 1.824 7.979 2.127 12.462 6.838 22.189 14.134 29.181 7.598 6.079 17.022 10.487 28.269 13.223 10.335 1.824 21.126 2.735 32.373 2.736 21.885 0 39.971-3.496 54.259-10.487 13.677-7.295 24.924-16.87 33.74-28.725 7.903-12.463 13.83-27.053 17.783-43.771 1.519-9.727 2.659-23.71 3.419-41.948 0.759-18.238 1.14-33.589 1.141-46.051-0.607-14.895-2.736-29.485-6.384-43.771-1.216-3.648-3.573-7.979-7.067-12.995-3.497-5.016-7.068-9.423-10.715-13.223-3.648-3.8-7.144-7.523-10.487-11.171-3.648-4.56-12.388-8.359-26.217-11.399s-25.914-4.56-36.248-4.56h-646.084c0 14.287 3.040 23.861 9.119 28.725 0.912 6.383 7.219 15.426 18.922 27.129s24.469 23.406 38.3 35.108c13.83 11.703 24.089 20.29 30.777 25.761v612.343c-21.278 16.11-31.917 31.156-31.917 45.139 0 10.030 6.839 18.997 20.518 26.901 13.070 7.598 29.941 14.438 50.611 20.518z" horiz-adv-x="7680" />
<glyph unicode="&#xe606;" d="M678.4 460.8l-365.619 379.904c-13.722 13.824-13.722 36.198 0 50.125 13.722 13.824 35.891 13.824 49.613 0l400.896-404.89c13.722-13.875 13.722-36.301 0-50.125l-400.896-404.89c-13.722-13.875-35.891-13.824-49.613 0-13.722 13.773-13.722 36.198 0 50.125l365.619 379.75z" />
<glyph unicode="&#xe607;" d="M810.667 213.334h-597.333c-47.061 0-85.333-38.272-85.333-85.333s38.272-85.333 85.333-85.333h597.333c47.061 0 85.333 38.272 85.333 85.333s-38.272 85.333-85.333 85.333zM810.667 512h-597.333c-47.061 0-85.333-38.272-85.333-85.333s38.272-85.333 85.333-85.333h597.333c47.061 0 85.333 38.272 85.333 85.333s-38.272 85.333-85.333 85.333zM810.667 810.667h-597.333c-47.061 0-85.333-38.272-85.333-85.333s38.272-85.333 85.333-85.333h597.333c47.061 0 85.333 38.272 85.333 85.333s-38.272 85.333-85.333 85.333z" />
<glyph unicode="&#xe96b;" d="M512 896c282.77 0 512-186.25 512-416 0-229.752-229.23-416-512-416-27.156 0-53.81 1.734-79.824 5.044-109.978-109.978-241.25-129.7-368.176-132.596v26.916c68.536 33.578 128 94.74 128 164.636 0 9.754-0.758 19.33-2.164 28.696-115.796 76.264-189.836 192.754-189.836 323.304 0 229.75 229.23 416 512 416z" />
<glyph unicode="&#xe96e;" d="M512 768c-54.932 0-107.988-8.662-157.694-25.742-46.712-16.054-88.306-38.744-123.628-67.444-66.214-53.798-102.678-122.984-102.678-194.814 0-40.298 11.188-79.378 33.252-116.152 22.752-37.92 56.982-72.586 98.988-100.252 30.356-19.992 50.78-51.948 56.176-87.894 1.8-11.984 2.928-24.088 3.37-36.124 7.47 6.194 14.75 12.846 21.88 19.976 24.154 24.152 56.78 37.49 90.502 37.49 5.368 0 10.762-0.336 16.156-1.024 20.974-2.666 42.398-4.020 63.676-4.020 54.934 0 107.988 8.66 157.694 25.742 46.712 16.054 88.306 38.744 123.628 67.444 66.214 53.796 102.678 122.984 102.678 194.814s-36.464 141.016-102.678 194.814c-35.322 28.698-76.916 51.39-123.628 67.444-49.706 17.080-102.76 25.742-157.694 25.742zM512 896v0c282.77 0 512-186.25 512-416 0-229.752-229.23-416-512-416-27.156 0-53.81 1.734-79.824 5.044-109.978-109.978-241.25-129.7-368.176-132.596v26.916c68.536 33.578 128 94.74 128 164.636 0 9.754-0.758 19.33-2.164 28.696-115.796 76.264-189.836 192.754-189.836 323.304 0 229.75 229.23 416 512 416z" />
<glyph unicode="&#xe96f;" d="M1088 58.834c0-45.5 26.028-84.908 64-104.184v-15.938c-10.626-1.454-21.472-2.224-32.5-2.224-68.008 0-129.348 28.528-172.722 74.264-26.222-6.982-54.002-10.752-82.778-10.752-159.058 0-288 114.616-288 256s128.942 256 288 256c159.058 0 288-114.616 288-256 0-55.348-19.764-106.592-53.356-148.466-6.824-14.824-10.644-31.312-10.644-48.7zM230.678 738.814c-66.214-53.798-102.678-122.984-102.678-194.814 0-40.298 11.188-79.378 33.252-116.15 22.752-37.92 56.982-72.586 98.988-100.252 30.356-19.992 50.78-51.948 56.176-87.894 1.8-11.984 2.928-24.088 3.37-36.124 7.47 6.194 14.75 12.846 21.88 19.976 24.154 24.152 56.78 37.49 90.502 37.49 5.368 0 10.762-0.336 16.156-1.024 20.948-2.662 42.344-4.016 63.594-4.020v-128c-27.128 0.002-53.754 1.738-79.742 5.042-109.978-109.978-241.25-129.7-368.176-132.596v26.916c68.536 33.578 128 94.74 128 164.636 0 9.754-0.758 19.33-2.164 28.696-115.796 76.264-189.836 192.754-189.836 323.304 0 229.75 229.23 416 512 416 278.458 0 504.992-180.614 511.836-405.52-41.096 18.316-85.84 29.422-132.262 32.578-11.53 56.068-45.402 108.816-98.252 151.756-35.322 28.698-76.916 51.39-123.628 67.444-49.706 17.080-102.76 25.742-157.694 25.742-54.932 0-107.988-8.662-157.694-25.742-46.712-16.054-88.306-38.744-123.628-67.444z" horiz-adv-x="1152" />
<glyph unicode="&#xe982;" d="M512 960c-278.748 0-505.458-222.762-511.848-499.974 5.92 241.864 189.832 435.974 415.848 435.974 229.75 0 416-200.576 416-448 0-53.020 42.98-96 96-96s96 42.98 96 96c0 282.77-229.23 512-512 512zM512-64c278.748 0 505.458 222.762 511.848 499.974-5.92-241.864-189.832-435.974-415.848-435.974-229.75 0-416 200.576-416 448 0 53.020-42.98 96-96 96s-96-42.98-96-96c0-282.77 229.23-512 512-512z" />
<glyph unicode="&#xe984;" d="M1024 576h-384l143.53 143.53c-72.53 72.526-168.96 112.47-271.53 112.47s-199-39.944-271.53-112.47c-72.526-72.53-112.47-168.96-112.47-271.53s39.944-199 112.47-271.53c72.53-72.526 168.96-112.47 271.53-112.47s199 39.944 271.528 112.472c6.056 6.054 11.86 12.292 17.456 18.668l96.32-84.282c-93.846-107.166-231.664-174.858-385.304-174.858-282.77 0-512 229.23-512 512s229.23 512 512 512c141.386 0 269.368-57.326 362.016-149.984l149.984 149.984v-384z" />
<glyph unicode="&#xe986;" d="M992.262 88.604l-242.552 206.294c-25.074 22.566-51.89 32.926-73.552 31.926 57.256 67.068 91.842 154.078 91.842 249.176 0 212.078-171.922 384-384 384-212.076 0-384-171.922-384-384s171.922-384 384-384c95.098 0 182.108 34.586 249.176 91.844-1-21.662 9.36-48.478 31.926-73.552l206.294-242.552c35.322-39.246 93.022-42.554 128.22-7.356s31.892 92.898-7.354 128.22zM384 320c-141.384 0-256 114.616-256 256s114.616 256 256 256 256-114.616 256-256-114.614-256-256-256z" />
<glyph unicode="&#xe9ce;" d="M512 768c-223.318 0-416.882-130.042-512-320 95.118-189.958 288.682-320 512-320 223.312 0 416.876 130.042 512 320-95.116 189.958-288.688 320-512 320zM764.45 598.296c60.162-38.374 111.142-89.774 149.434-150.296-38.292-60.522-89.274-111.922-149.436-150.296-75.594-48.218-162.89-73.704-252.448-73.704-89.56 0-176.858 25.486-252.452 73.704-60.158 38.372-111.138 89.772-149.432 150.296 38.292 60.524 89.274 111.924 149.434 150.296 3.918 2.5 7.876 4.922 11.86 7.3-9.96-27.328-15.41-56.822-15.41-87.596 0-141.382 114.616-256 256-256 141.382 0 256 114.618 256 256 0 30.774-5.452 60.268-15.408 87.598 3.978-2.378 7.938-4.802 11.858-7.302v0zM512 544c0-53.020-42.98-96-96-96s-96 42.98-96 96 42.98 96 96 96 96-42.982 96-96z" />
<glyph unicode="&#xe9d7;" d="M1024 562.95l-353.78 51.408-158.22 320.582-158.216-320.582-353.784-51.408 256-249.538-60.432-352.352 316.432 166.358 316.432-166.358-60.434 352.352 256.002 249.538zM512 206.502l-223.462-117.48 42.676 248.83-180.786 176.222 249.84 36.304 111.732 226.396 111.736-226.396 249.836-36.304-180.788-176.222 42.678-248.83-223.462 117.48z" />
<glyph unicode="&#xe9d8;" d="M1024 562.95l-353.78 51.408-158.22 320.582-158.216-320.582-353.784-51.408 256-249.538-60.432-352.352 316.432 166.358 316.432-166.358-60.434 352.352 256.002 249.538zM512 206.502l-0.942-0.496 0.942 570.768 111.736-226.396 249.836-36.304-180.788-176.222 42.678-248.83-223.462 117.48z" />
<glyph unicode="&#xe9d9;" d="M1024 562.95l-353.78 51.408-158.22 320.582-158.216-320.582-353.784-51.408 256-249.538-60.432-352.352 316.432 166.358 316.432-166.358-60.434 352.352 256.002 249.538z" />
<glyph unicode="&#xe9da;" d="M755.188 896c-107.63 0-200.258-87.554-243.164-179-42.938 91.444-135.578 179-243.216 179-148.382 0-268.808-120.44-268.808-268.832 0-301.846 304.5-380.994 512.022-679.418 196.154 296.576 511.978 387.206 511.978 679.418 0 148.392-120.43 268.832-268.812 268.832z" />
<glyph unicode="&#xea2e;" d="M889.68 793.68c-93.608 102.216-228.154 166.32-377.68 166.32-282.77 0-512-229.23-512-512h96c0 229.75 186.25 416 416 416 123.020 0 233.542-53.418 309.696-138.306l-149.696-149.694h352v352l-134.32-134.32zM928 448c0-229.75-186.25-416-416-416-123.020 0-233.542 53.418-309.694 138.306l149.694 149.694h-352v-352l134.32 134.32c93.608-102.216 228.154-166.32 377.68-166.32 282.77 0 512 229.23 512 512h-96z" />
<glyph unicode="&#xea3a;" d="M877.254 557.254l-320 320c-24.992 24.994-65.514 24.994-90.508 0l-320-320c-24.994-24.994-24.994-65.516 0-90.51 24.994-24.996 65.516-24.996 90.51 0l210.744 210.746v-613.49c0-35.346 28.654-64 64-64s64 28.654 64 64v613.49l210.746-210.746c12.496-12.496 28.876-18.744 45.254-18.744s32.758 6.248 45.254 18.746c24.994 24.994 24.994 65.514 0 90.508z" />
<glyph unicode="&#xea3c;" d="M621.254 82.746l320 320c24.994 24.992 24.994 65.516 0 90.51l-320 320c-24.994 24.992-65.516 24.992-90.51 0-24.994-24.994-24.994-65.516 0-90.51l210.746-210.746h-613.49c-35.346 0-64-28.654-64-64s28.654-64 64-64h613.49l-210.746-210.746c-12.496-12.496-18.744-28.876-18.744-45.254s6.248-32.758 18.744-45.254c24.994-24.994 65.516-24.994 90.51 0z" />
<glyph unicode="&#xea3e;" d="M877.254 338.746l-320-320c-24.992-24.994-65.514-24.994-90.508 0l-320 320c-24.994 24.994-24.994 65.516 0 90.51 24.994 24.996 65.516 24.996 90.51 0l210.744-210.746v613.49c0 35.346 28.654 64 64 64s64-28.654 64-64v-613.49l210.746 210.746c12.496 12.496 28.876 18.744 45.254 18.744s32.758-6.248 45.254-18.746c24.994-24.994 24.994-65.514 0-90.508z" />
<glyph unicode="&#xea40;" d="M402.746 82.746l-320 320c-24.994 24.992-24.994 65.516 0 90.51l320 320c24.994 24.992 65.516 24.992 90.51 0 24.994-24.994 24.994-65.516 0-90.51l-210.746-210.746h613.49c35.346 0 64-28.654 64-64s-28.654-64-64-64h-613.49l210.746-210.746c12.496-12.496 18.744-28.876 18.744-45.254s-6.248-32.758-18.744-45.254c-24.994-24.994-65.516-24.994-90.51 0z" />
<glyph unicode="&#xea8c;" d="M672 768c-88.366 0-160-71.634-160-160v-96h-128v-128h128v-448h128v448h144l32 128h-176v96c0 17.672 14.326 32 32 32h160v128h-160z" />
<glyph unicode="&#xea8e;" d="M512 960c-282.77 0-512-229.23-512-512s229.23-512 512-512v384h-128v128h128v96c0 88.366 71.632 160 160 160h160v-128h-160c-17.674 0-32-14.328-32-32v-96h176l-32-128h-144v-367.87c220.828 56.838 384 257.3 384 495.87 0 282.77-229.23 512-512 512z" />
<glyph unicode="&#xea91;" d="M1024 765.582c-37.676-16.708-78.164-28.002-120.66-33.080 43.372 26 76.686 67.17 92.372 116.23-40.596-24.078-85.556-41.56-133.41-50.98-38.32 40.83-92.922 66.34-153.346 66.34-116.022 0-210.088-94.058-210.088-210.078 0-16.466 1.858-32.5 5.44-47.878-174.6 8.764-329.402 92.4-433.018 219.506-18.084-31.028-28.446-67.116-28.446-105.618 0-72.888 37.088-137.192 93.46-174.866-34.438 1.092-66.832 10.542-95.154 26.278-0.020-0.876-0.020-1.756-0.020-2.642 0-101.788 72.418-186.696 168.522-206-17.626-4.8-36.188-7.372-55.348-7.372-13.538 0-26.698 1.32-39.528 3.772 26.736-83.46 104.32-144.206 196.252-145.896-71.9-56.35-162.486-89.934-260.916-89.934-16.958 0-33.68 0.994-50.116 2.94 92.972-59.61 203.402-94.394 322.042-94.394 386.422 0 597.736 320.124 597.736 597.744 0 9.108-0.206 18.168-0.61 27.18 41.056 29.62 76.672 66.62 104.836 108.748z" />
<glyph unicode="&#xeac9;" d="M384 576h177.106v-90.782h2.532c24.64 44.194 84.958 90.782 174.842 90.782 186.946 0 221.52-116.376 221.52-267.734v-308.266h-184.61v273.278c0 65.184-1.334 149.026-96.028 149.026-96.148 0-110.82-70.986-110.82-144.292v-278.012h-184.542v576zM64 576h192v-576h-192v576zM256 736c0-53.019-42.981-96-96-96s-96 42.981-96 96c0 53.019 42.981 96 96 96s96-42.981 96-96z" />
<glyph unicode="&#xead0;" d="M512.006 959.998c-282.774 0-512.006-229.23-512.006-511.996 0-216.906 134.952-402.166 325.414-476.772-4.478 40.508-8.518 102.644 1.774 146.876 9.298 39.954 60.040 254.5 60.040 254.5s-15.32 30.664-15.32 76.008c0 71.19 41.268 124.336 92.644 124.336 43.68 0 64.784-32.794 64.784-72.12 0-43.928-27.964-109.604-42.404-170.464-12.060-50.972 25.556-92.536 75.814-92.536 91.008 0 160.958 95.96 160.958 234.466 0 122.584-88.088 208.298-213.868 208.298-145.678 0-231.186-109.274-231.186-222.19 0-44.008 16.95-91.196 38.102-116.844 4.182-5.070 4.792-9.516 3.548-14.68-3.884-16.18-12.522-50.96-14.216-58.076-2.234-9.368-7.422-11.356-17.124-6.842-63.95 29.77-103.926 123.264-103.926 198.348 0 161.51 117.348 309.834 338.294 309.834 177.61 0 315.634-126.56 315.634-295.704 0-176.458-111.256-318.466-265.676-318.466-51.886 0-100.652 26.958-117.35 58.796 0 0-25.672-97.766-31.894-121.71-11.564-44.468-42.768-100.218-63.642-134.226 47.91-14.832 98.818-22.832 151.604-22.832 282.768 0.002 511.996 229.23 511.996 512 0 282.766-229.228 511.996-511.994 511.996z" />
</font>
</defs>
</svg>
